<svg width="181" height="68" viewBox="0 0 181 68" fill="none" xmlns="http://www.w3.org/2000/svg">
<path d="M59.027 56.9077L58.7667 59.0135H59.7406C59.9672 59.0135 60.166 58.9864 60.3369 58.9273C60.5092 58.8689 60.6522 58.7849 60.768 58.6788C60.8817 58.5713 60.969 58.4417 61.0269 58.2885C61.0869 58.134 61.1155 57.9624 61.1155 57.773C61.1155 57.481 61.029 57.2623 60.8524 57.1213C60.6779 56.9789 60.4069 56.9084 60.0409 56.9084H59.027V56.9077ZM59.6211 61.7866C59.8471 61.7866 60.0437 61.7574 60.2125 61.6969C60.3798 61.637 60.5185 61.5516 60.6307 61.4426C60.7416 61.3337 60.8252 61.1998 60.8817 61.0453C60.9361 60.8907 60.9654 60.717 60.9654 60.5233C60.9654 60.3879 60.9432 60.2676 60.9003 60.1615C60.856 60.0532 60.7895 59.9635 60.7008 59.8866C60.6129 59.8097 60.5013 59.7513 60.364 59.7107C60.2282 59.6694 60.068 59.6502 59.8828 59.6502H58.688L58.4235 61.7866H59.6226H59.6211ZM60.1231 56.1998C60.4584 56.1998 60.7452 56.2326 60.9854 56.2988C61.2235 56.365 61.4216 56.4576 61.5781 56.5815C61.7333 56.704 61.847 56.8536 61.9214 57.0273C61.9957 57.2011 62.0308 57.3977 62.0308 57.612C62.0308 57.7986 62.005 57.9731 61.9528 58.144C61.8985 58.3149 61.8184 58.4701 61.7119 58.6133C61.6046 58.7571 61.4702 58.8853 61.3079 58.9921C61.1477 59.104 60.9575 59.1937 60.7394 59.2635C61.1162 59.3482 61.3958 59.4949 61.5817 59.7043C61.7655 59.9129 61.8599 60.1807 61.8599 60.5062C61.8599 60.7939 61.8055 61.0616 61.7004 61.3059C61.5939 61.5502 61.443 61.761 61.245 61.9383C61.0462 62.1163 60.8031 62.2545 60.5178 62.3542C60.2311 62.4524 59.9079 62.503 59.5454 62.503H57.4318L58.2068 56.2005H60.1224L60.1231 56.1998Z" fill="white"/>
<path d="M64.8208 58.5935C64.6442 58.5935 64.4833 58.6284 64.336 58.7003C64.1895 58.7729 64.0579 58.8712 63.9399 58.9994C63.8227 59.1261 63.7226 59.2764 63.641 59.4473C63.5574 59.6189 63.493 59.8048 63.4473 60.0049C63.8784 59.9501 64.2245 59.8881 64.4848 59.8212C64.7436 59.7535 64.9445 59.6809 65.0847 59.599C65.227 59.5207 65.3192 59.4331 65.3657 59.3434C65.4114 59.2536 65.4343 59.1561 65.4343 59.0535C65.4343 59.0037 65.4236 58.9531 65.4007 58.8983C65.3792 58.8441 65.3442 58.7936 65.2956 58.7494C65.2463 58.7038 65.1841 58.6668 65.1068 58.6362C65.0296 58.6091 64.9324 58.5942 64.8215 58.5942L64.8208 58.5935ZM66.0986 61.6785C65.9463 61.833 65.7982 61.9662 65.6545 62.0787C65.5108 62.1891 65.3635 62.2817 65.2119 62.3543C65.0604 62.4276 64.9023 62.4796 64.7393 62.5138C64.5734 62.548 64.3932 62.5658 64.2002 62.5658C63.9435 62.5658 63.7133 62.5224 63.5059 62.4355C63.2986 62.3486 63.1241 62.2275 62.9797 62.0687C62.8359 61.9106 62.7258 61.7212 62.6479 61.4947C62.5692 61.2718 62.5299 61.0219 62.5299 60.7427C62.5299 60.5127 62.5535 60.2812 62.6028 60.0562C62.6507 59.8297 62.7222 59.6154 62.8166 59.4117C62.9103 59.208 63.024 59.0179 63.1591 58.8434C63.2943 58.6675 63.4494 58.5166 63.6225 58.3891C63.7969 58.2609 63.9864 58.1626 64.1959 58.0907C64.4047 58.0195 64.6299 57.9832 64.8702 57.9832C65.0997 57.9832 65.2977 58.0152 65.4658 58.0793C65.6324 58.1448 65.7704 58.2274 65.8819 58.3271C65.9927 58.429 66.0728 58.5401 66.1257 58.6625C66.1779 58.785 66.2051 58.9054 66.2051 59.0229C66.2051 59.2145 66.1651 59.3932 66.0857 59.5556C66.0056 59.7172 65.8626 59.8646 65.6517 59.9935C65.4422 60.1239 65.1519 60.2385 64.7858 60.3347C64.4197 60.4322 63.9471 60.5091 63.3715 60.5675C63.3679 60.5925 63.3658 60.6195 63.3658 60.6459V60.7249C63.3658 61.1088 63.4487 61.3972 63.6153 61.5937C63.7819 61.7903 64.0322 61.8886 64.3675 61.8886C64.5055 61.8886 64.6299 61.8743 64.7386 61.8472C64.8458 61.8181 64.9424 61.7846 65.026 61.7426C65.1097 61.7013 65.184 61.6585 65.2484 61.6101C65.3135 61.561 65.3721 61.5168 65.4272 61.4755C65.4815 61.4349 65.5323 61.4007 65.5795 61.3701C65.6266 61.3438 65.6745 61.3288 65.7253 61.3288C65.7575 61.3288 65.7861 61.3381 65.8111 61.3537C65.8354 61.3694 65.859 61.3908 65.8833 61.4143L66.0978 61.677L66.0986 61.6785Z" fill="white"/>
<path d="M69.6951 62.1199C69.5578 62.2324 69.4191 62.3207 69.2783 62.387C69.1396 62.4518 68.9951 62.4988 68.8478 62.5244C68.6984 62.5515 68.5361 62.5643 68.3595 62.5643C68.1014 62.5643 67.8711 62.5194 67.6702 62.4318C67.4693 62.345 67.3005 62.2203 67.1647 62.0587C67.0281 61.8984 66.9244 61.7047 66.8536 61.4811C66.7821 61.2539 66.7485 61.0026 66.7485 60.7284C66.7485 60.4905 66.7728 60.2534 66.8258 60.0248C66.8758 59.7933 66.9495 59.579 67.0467 59.3753C67.1439 59.1716 67.2619 58.9843 67.4006 58.8141C67.5379 58.6418 67.6916 58.4951 67.864 58.3691C68.0327 58.2451 68.2186 58.149 68.4202 58.0792C68.6219 58.0101 68.8364 57.976 69.0609 57.976C69.3576 57.976 69.6072 58.0294 69.8081 58.1355C70.009 58.2387 70.1863 58.3933 70.3401 58.5962L70.0691 58.921C70.0469 58.9438 70.0205 58.963 69.9933 58.9829C69.964 58.9993 69.9339 59.0078 69.9025 59.0078C69.8603 59.0078 69.8203 58.9915 69.7788 58.9544C69.738 58.921 69.6865 58.8811 69.6251 58.8391C69.5636 58.7956 69.4863 58.7572 69.3941 58.7237C69.3011 58.6881 69.1832 58.6696 69.0395 58.6696C68.8464 58.6696 68.6612 58.723 68.4896 58.8277C68.3144 58.9295 68.1636 59.0748 68.0349 59.2592C67.904 59.443 67.8032 59.6609 67.7253 59.9116C67.6495 60.1651 67.6101 60.4385 67.6101 60.7327C67.6101 60.9093 67.6316 61.0674 67.6723 61.2105C67.7145 61.3544 67.7724 61.4754 67.8518 61.5758C67.929 61.6748 68.027 61.7517 68.1421 61.8073C68.2587 61.8607 68.3916 61.8885 68.5411 61.8885C68.6669 61.8885 68.7785 61.8742 68.8779 61.8486C68.9751 61.8237 69.0631 61.7902 69.1381 61.7524C69.2132 61.7133 69.2797 61.6706 69.3376 61.6243C69.397 61.5787 69.4484 61.5345 69.4971 61.4975C69.5428 61.459 69.5879 61.427 69.6293 61.4006C69.6694 61.3743 69.7116 61.3615 69.7523 61.3615C69.8117 61.3615 69.8632 61.3864 69.9111 61.4398L70.1263 61.7033C69.9768 61.8707 69.8317 62.0095 69.6944 62.1192L69.6951 62.1199Z" fill="white"/>
<path d="M73.7264 58.6276C73.6128 58.6105 73.4984 58.6012 73.3875 58.6012C73.1265 58.6012 72.8806 58.6611 72.6518 58.7821C72.423 58.9046 72.2235 59.0691 72.054 59.2721C71.8846 59.4765 71.7516 59.715 71.6543 59.9856C71.5549 60.2555 71.507 60.5397 71.507 60.8352C71.507 61.1771 71.5621 61.4327 71.6729 61.6001C71.7852 61.7696 71.9468 61.8522 72.1591 61.8522C72.2971 61.8522 72.4316 61.8087 72.5653 61.7204C72.699 61.6293 72.8255 61.5068 72.9449 61.3508C73.0636 61.1949 73.1737 61.009 73.276 60.7946C73.3775 60.5817 73.4655 60.3488 73.5434 60.0989L73.7272 58.6276H73.7264ZM73.4276 61.3879C73.3253 61.5666 73.2138 61.7283 73.0944 61.8735C72.9742 62.0174 72.8491 62.142 72.7154 62.2439C72.5817 62.3471 72.4401 62.4262 72.2928 62.481C72.1434 62.5351 71.9904 62.565 71.8317 62.565C71.655 62.565 71.4949 62.5308 71.349 62.4611C71.2039 62.3927 71.078 62.2894 70.9751 62.1577C70.8707 62.0245 70.7899 61.8586 70.732 61.6635C70.6755 61.4669 70.6476 61.2419 70.6476 60.9898C70.6476 60.7248 70.6798 60.4671 70.7463 60.2142C70.8128 59.9607 70.9071 59.7236 71.0294 59.5007C71.1524 59.2785 71.3018 59.0734 71.4727 58.8861C71.6443 58.6995 71.8359 58.5386 72.0469 58.4047C72.2599 58.2694 72.4873 58.164 72.7326 58.0906C72.9778 58.0151 73.2345 57.9788 73.5005 57.9788C73.6957 57.9788 73.8845 57.9931 74.0725 58.0244C74.2591 58.055 74.4429 58.1077 74.6238 58.1861L74.0868 62.5031H73.6378C73.5248 62.5031 73.4505 62.4746 73.4126 62.4169C73.3732 62.3606 73.3561 62.2901 73.3561 62.2097L73.4261 61.3886L73.4276 61.3879Z" fill="white"/>
<path d="M79.3142 58.0436L78.7723 62.503H78.3461C78.1373 62.503 78.0322 62.3998 78.0322 62.194L78.0858 61.4662C77.8535 61.8301 77.5925 62.1028 77.3036 62.2887C77.014 62.4731 76.7166 62.565 76.4113 62.565C76.2225 62.565 76.0566 62.5265 75.9108 62.4518C75.7656 62.3784 75.6462 62.2673 75.5561 62.1249C75.4646 61.9818 75.4024 61.8059 75.3681 61.5965C75.3337 61.3878 75.3337 61.1485 75.3659 60.8779L75.7055 58.0429H76.56L76.2261 60.8779C76.1839 61.2112 76.2032 61.4576 76.2826 61.6157C76.3612 61.7738 76.5121 61.8514 76.7323 61.8514C76.8632 61.8514 76.9983 61.8165 77.1363 61.7446C77.275 61.6734 77.4087 61.5716 77.5388 61.4398C77.6668 61.3095 77.787 61.15 77.8971 60.9627C78.0079 60.7747 78.1023 60.5667 78.1809 60.3374L78.4541 58.0422H79.3135L79.3142 58.0436Z" fill="white"/>
<path d="M82.8127 58.7899C82.7863 58.8277 82.7606 58.854 82.7355 58.869C82.7105 58.8875 82.6798 58.8939 82.6419 58.8939C82.5982 58.8939 82.5503 58.8775 82.5024 58.8462C82.4545 58.8141 82.3959 58.78 82.3251 58.7408C82.2565 58.7023 82.1735 58.6689 82.0784 58.6347C81.9805 58.6034 81.8632 58.5877 81.7245 58.5877C81.5951 58.5877 81.48 58.6048 81.377 58.6404C81.2733 58.6746 81.1854 58.723 81.1103 58.7821C81.0352 58.8426 80.9773 58.9138 80.9387 58.9957C80.8986 59.0762 80.8786 59.1638 80.8786 59.2543C80.8786 59.3532 80.9058 59.438 80.9566 59.5049C81.0109 59.5726 81.0795 59.631 81.1653 59.6837C81.2504 59.7342 81.3484 59.7812 81.4585 59.8211C81.5679 59.8617 81.6809 59.9044 81.7946 59.9514C81.9097 59.9956 82.0227 60.0454 82.132 60.1024C82.2429 60.1565 82.3408 60.2249 82.4252 60.3054C82.5103 60.3851 82.5796 60.4827 82.6318 60.5974C82.6848 60.7113 82.7126 60.8473 82.7126 61.0047C82.7126 61.2134 82.6719 61.412 82.5882 61.6001C82.506 61.7902 82.3887 61.9554 82.2343 62.1007C82.0806 62.2453 81.8939 62.3606 81.6759 62.4447C81.4592 62.5301 81.2154 62.5721 80.9451 62.5721C80.6598 62.5721 80.406 62.5216 80.1836 62.419C79.9598 62.3158 79.7796 62.1854 79.6409 62.0288L79.8533 61.7012C79.9083 61.6164 79.9834 61.573 80.0771 61.573C80.1271 61.573 80.1765 61.5922 80.2244 61.6349C80.2737 61.6727 80.3316 61.7204 80.4024 61.7674C80.4732 61.8165 80.5604 61.86 80.662 61.902C80.7649 61.9447 80.8979 61.964 81.0588 61.964C81.1961 61.964 81.3212 61.944 81.432 61.902C81.5422 61.86 81.6337 61.8066 81.7123 61.7375C81.7888 61.6691 81.8453 61.5894 81.8861 61.4982C81.9254 61.4071 81.9454 61.3102 81.9454 61.2062C81.9454 61.1008 81.9197 61.0097 81.8668 60.9356C81.8139 60.8601 81.7452 60.7982 81.6594 60.7455C81.5736 60.6942 81.4764 60.6479 81.3663 60.6102C81.2547 60.5703 81.1446 60.5297 81.0309 60.4855C80.9172 60.4435 80.8071 60.3987 80.6963 60.346C80.5862 60.2947 80.4889 60.2306 80.4024 60.1494C80.3181 60.0711 80.2494 59.9757 80.1958 59.8624C80.1429 59.7506 80.1171 59.6132 80.1171 59.4529C80.1171 59.2628 80.1543 59.0805 80.2308 58.9017C80.3073 58.7244 80.4174 58.5677 80.5604 58.4296C80.7027 58.2921 80.875 58.1839 81.0788 58.1006C81.2833 58.0187 81.5143 57.9781 81.7731 57.9781C82.0498 57.9781 82.2915 58.0237 82.4989 58.1127C82.7055 58.2017 82.8828 58.3242 83.0337 58.4794L82.8127 58.7906V58.7899Z" fill="white"/>
<path d="M85.73 58.5935C85.5534 58.5935 85.3925 58.6284 85.2452 58.7003C85.0979 58.7729 84.9671 58.8712 84.8484 58.9994C84.7318 59.1261 84.6317 59.2764 84.5502 59.4473C84.4659 59.6189 84.4022 59.8048 84.3543 60.0049C84.7876 59.9501 85.1323 59.8881 85.3918 59.8212C85.6514 59.7535 85.8537 59.6809 85.9931 59.599C86.1347 59.5207 86.2277 59.4331 86.2741 59.3434C86.3192 59.2536 86.3421 59.1561 86.3421 59.0535C86.3421 59.0037 86.3321 58.9531 86.3092 58.8983C86.2863 58.8441 86.252 58.7936 86.2041 58.7494C86.1547 58.7038 86.0911 58.6668 86.0139 58.6362C85.9367 58.6091 85.8408 58.5942 85.73 58.5942V58.5935ZM87.0078 61.6785C86.8547 61.833 86.7074 61.9662 86.5637 62.0787C86.4186 62.1891 86.2727 62.2817 86.1211 62.3543C85.9695 62.4276 85.8115 62.4796 85.6471 62.5138C85.4826 62.548 85.3024 62.5658 85.1101 62.5658C84.8534 62.5658 84.6225 62.5224 84.4158 62.4355C84.2077 62.3486 84.0333 62.2275 83.8888 62.0687C83.7451 61.9106 83.6336 61.7212 83.5564 61.4947C83.4784 61.2718 83.4398 61.0219 83.4398 60.7427C83.4398 60.5127 83.4634 60.2812 83.5128 60.0562C83.5621 59.8297 83.6329 59.6154 83.7265 59.4117C83.8209 59.208 83.9346 59.0179 84.0697 58.8434C84.2049 58.6675 84.36 58.5166 84.5324 58.3891C84.7068 58.2609 84.897 58.1626 85.1058 58.0907C85.3153 58.0195 85.5405 57.9832 85.7808 57.9832C86.0096 57.9832 86.2069 58.0152 86.375 58.0793C86.5423 58.1448 86.681 58.2274 86.7918 58.3271C86.9026 58.429 86.9827 58.5401 87.0356 58.6625C87.0885 58.785 87.1143 58.9054 87.1143 59.0229C87.1143 59.2145 87.0757 59.3932 86.9963 59.5556C86.9155 59.7172 86.7725 59.8646 86.5623 59.9935C86.3521 60.1239 86.0625 60.2385 85.6964 60.3347C85.3275 60.4322 84.8577 60.5091 84.2814 60.5675C84.2785 60.5925 84.2764 60.6195 84.2764 60.6459V60.7249C84.2764 61.1088 84.3593 61.3972 84.5259 61.5937C84.6911 61.7903 84.9428 61.8886 85.2781 61.8886C85.4161 61.8886 85.5398 61.8743 85.6471 61.8472C85.7558 61.8181 85.8523 61.7846 85.9359 61.7426C86.0189 61.7013 86.094 61.6585 86.1576 61.6101C86.2227 61.561 86.2827 61.5168 86.3364 61.4755C86.39 61.4349 86.4415 61.4007 86.4879 61.3701C86.5373 61.3438 86.5852 61.3288 86.6345 61.3288C86.6667 61.3288 86.696 61.3381 86.7203 61.3537C86.7453 61.3694 86.7689 61.3908 86.7925 61.4143L87.0078 61.677V61.6785Z" fill="white"/>
<path d="M91.466 56.9334L91.215 58.9694H93.3965L93.305 59.6758H91.127L90.8732 61.7695H93.5903L93.4995 62.5031H89.8715L90.648 56.1992H94.2745L94.1809 56.9334H91.466Z" fill="white"/>
<path d="M98.3931 58.0436L96.1601 62.503H95.4372L94.2903 58.0436H94.9918C95.0561 58.0436 95.1069 58.06 95.1434 58.0927C95.1805 58.1255 95.2048 58.1639 95.2163 58.2152L95.8341 60.9541C95.8541 61.0759 95.8684 61.197 95.8805 61.3109C95.8941 61.427 95.9027 61.5416 95.9091 61.6606C95.9456 61.5416 95.9856 61.427 96.0271 61.3109C96.0672 61.197 96.1136 61.0759 96.1637 60.9541L97.4715 58.2152C97.4958 58.1639 97.5294 58.1255 97.5744 58.0927C97.6195 58.0607 97.6674 58.0436 97.7239 58.0436H98.3938H98.3931Z" fill="white"/>
<path d="M100.667 58.5935C100.492 58.5935 100.329 58.6284 100.183 58.7003C100.036 58.7729 99.9046 58.8712 99.7866 58.9994C99.6686 59.1261 99.5693 59.2764 99.4863 59.4473C99.4048 59.6189 99.3383 59.8048 99.2925 60.0049C99.7251 59.9501 100.07 59.8881 100.331 59.8212C100.59 59.7535 100.791 59.6809 100.932 59.599C101.072 59.5207 101.164 59.4331 101.212 59.3434C101.259 59.2536 101.28 59.1561 101.28 59.0535C101.28 59.0037 101.27 58.9531 101.246 58.8983C101.226 58.8441 101.19 58.7936 101.141 58.7494C101.092 58.7038 101.03 58.6668 100.951 58.6362C100.874 58.6091 100.779 58.5942 100.667 58.5942V58.5935ZM101.945 61.6785C101.792 61.833 101.645 61.9662 101.501 62.0787C101.358 62.1891 101.21 62.2817 101.057 62.3543C100.906 62.4276 100.747 62.4796 100.585 62.5138C100.419 62.548 100.241 62.5658 100.046 62.5658C99.7909 62.5658 99.56 62.5224 99.3526 62.4355C99.146 62.3486 98.9715 62.2275 98.8264 62.0687C98.6819 61.9106 98.5711 61.7212 98.4932 61.4947C98.4159 61.2718 98.3773 61.0219 98.3773 60.7427C98.3773 60.5127 98.3995 60.2812 98.4488 60.0562C98.4982 59.8297 98.5682 59.6154 98.6619 59.4117C98.7556 59.208 98.8714 59.0179 99.0065 58.8434C99.1417 58.6675 99.2947 58.5166 99.4692 58.3891C99.6436 58.2609 99.8338 58.1626 100.043 58.0907C100.25 58.0195 100.475 57.9832 100.716 57.9832C100.945 57.9832 101.144 58.0152 101.311 58.0793C101.478 58.1448 101.618 58.2274 101.729 58.3271C101.838 58.429 101.92 58.5401 101.972 58.6625C102.026 58.785 102.052 58.9054 102.052 59.0229C102.052 59.2145 102.012 59.3932 101.932 59.5556C101.852 59.7172 101.709 59.8646 101.498 59.9935C101.287 60.1239 100.999 60.2385 100.632 60.3347C100.265 60.4322 99.7931 60.5091 99.2175 60.5675C99.2146 60.5925 99.2117 60.6195 99.2117 60.6459V60.7249C99.2117 61.1088 99.2961 61.3972 99.4613 61.5937C99.6279 61.7903 99.8781 61.8886 100.213 61.8886C100.351 61.8886 100.475 61.8743 100.584 61.8472C100.693 61.8181 100.789 61.7846 100.873 61.7426C100.956 61.7013 101.031 61.6585 101.096 61.6101C101.16 61.561 101.219 61.5168 101.274 61.4755C101.327 61.4349 101.378 61.4007 101.425 61.3701C101.472 61.3438 101.521 61.3288 101.571 61.3288C101.602 61.3288 101.631 61.3381 101.657 61.3537C101.681 61.3694 101.706 61.3908 101.728 61.4143L101.943 61.677L101.945 61.6785Z" fill="white"/>
<path d="M103.81 59.2471C103.926 59.0029 104.053 58.7928 104.188 58.6176C104.323 58.4417 104.464 58.3014 104.612 58.1989C104.758 58.0992 104.911 58.0372 105.068 58.0151C105.226 57.993 105.382 58.018 105.542 58.0885L105.387 58.9138C105.009 58.7607 104.677 58.8134 104.391 59.0677C104.107 59.3233 103.876 59.7926 103.701 60.4798L103.453 62.5038H102.611L103.154 58.0351H103.584C103.68 58.0351 103.751 58.0593 103.802 58.1056C103.851 58.1526 103.877 58.2259 103.877 58.3256L103.811 59.2478L103.81 59.2471Z" fill="white"/>
<path d="M109.83 58.0436L106.823 63.807C106.756 63.9351 106.658 63.9992 106.529 63.9992H105.892L106.872 62.2175L105.719 58.0436H106.432C106.499 58.0436 106.549 58.06 106.582 58.0927C106.614 58.1255 106.637 58.1639 106.653 58.2152L107.331 60.8922C107.346 60.957 107.358 61.0203 107.369 61.083C107.379 61.1464 107.387 61.2098 107.393 61.2781C107.419 61.2098 107.446 61.1442 107.474 61.0802C107.502 61.0182 107.532 60.9534 107.562 60.8893L108.9 58.2116C108.923 58.1618 108.957 58.1205 109.004 58.0913C109.048 58.06 109.095 58.0443 109.141 58.0443H109.829L109.83 58.0436Z" fill="white"/>
<path d="M113.504 56.9077L113.244 59.0135H114.219C114.445 59.0135 114.643 58.9864 114.816 58.9273C114.986 58.8689 115.131 58.7849 115.246 58.6788C115.36 58.5713 115.446 58.4417 115.504 58.2885C115.564 58.134 115.594 57.9624 115.594 57.773C115.594 57.481 115.507 57.2623 115.331 57.1213C115.157 56.9789 114.886 56.9084 114.52 56.9084H113.505L113.504 56.9077ZM114.098 61.7866C114.326 61.7866 114.522 61.7574 114.69 61.6969C114.858 61.637 114.997 61.5516 115.108 61.4426C115.221 61.3337 115.302 61.1998 115.36 61.0453C115.416 60.8907 115.444 60.717 115.444 60.5233C115.444 60.3879 115.421 60.2676 115.379 60.1615C115.335 60.0532 115.267 59.9635 115.181 59.8866C115.091 59.8097 114.979 59.7513 114.841 59.7107C114.706 59.6694 114.545 59.6502 114.36 59.6502H113.165L112.901 61.7866H114.098ZM114.602 56.1998C114.937 56.1998 115.224 56.2326 115.462 56.2988C115.703 56.365 115.899 56.4576 116.056 56.5815C116.211 56.704 116.327 56.8536 116.398 57.0273C116.473 57.2011 116.511 57.3977 116.511 57.612C116.511 57.7986 116.482 57.9731 116.43 58.144C116.377 58.3149 116.298 58.4701 116.189 58.6133C116.083 58.7571 115.948 58.8853 115.787 58.9921C115.624 59.104 115.435 59.1937 115.217 59.2635C115.595 59.3482 115.874 59.4949 116.061 59.7043C116.244 59.9129 116.337 60.1807 116.337 60.5062C116.337 60.7939 116.284 61.0616 116.179 61.3059C116.072 61.5502 115.92 61.761 115.721 61.9383C115.524 62.1163 115.281 62.2545 114.995 62.3542C114.708 62.4524 114.386 62.503 114.023 62.503H111.908L112.684 56.2005H114.601L114.602 56.1998Z" fill="white"/>
<path d="M121.098 58.0436L120.556 62.503H120.127C119.92 62.503 119.815 62.3998 119.815 62.194L119.867 61.4662C119.636 61.8301 119.375 62.1028 119.087 62.2887C118.796 62.4731 118.499 62.565 118.195 62.565C118.007 62.565 117.839 62.5265 117.693 62.4518C117.549 62.3784 117.43 62.2673 117.339 62.1249C117.247 61.9818 117.185 61.8059 117.152 61.5965C117.118 61.3878 117.116 61.1485 117.149 60.8779L117.488 58.0429H118.343L118.008 60.8779C117.966 61.2112 117.986 61.4576 118.065 61.6157C118.144 61.7738 118.293 61.8514 118.515 61.8514C118.647 61.8514 118.782 61.8165 118.92 61.7446C119.057 61.6734 119.191 61.5716 119.322 61.4398C119.45 61.3095 119.57 61.15 119.681 60.9627C119.789 60.7747 119.884 60.5667 119.963 60.3374L120.238 58.0422H121.097L121.098 58.0436Z" fill="white"/>
<path d="M124.596 58.7899C124.568 58.8277 124.543 58.854 124.518 58.869C124.495 58.8875 124.463 58.8939 124.424 58.8939C124.38 58.8939 124.333 58.8775 124.284 58.8462C124.237 58.8141 124.178 58.78 124.109 58.7408C124.04 58.7023 123.956 58.6689 123.858 58.6347C123.762 58.6034 123.645 58.5877 123.507 58.5877C123.378 58.5877 123.261 58.6048 123.158 58.6404C123.055 58.6746 122.967 58.723 122.892 58.7821C122.817 58.8426 122.76 58.9138 122.722 58.9957C122.681 59.0762 122.66 59.1638 122.66 59.2543C122.66 59.3532 122.689 59.438 122.741 59.5049C122.794 59.5726 122.862 59.631 122.949 59.6837C123.033 59.7342 123.131 59.7812 123.241 59.8211C123.351 59.8617 123.464 59.9044 123.578 59.9514C123.693 59.9956 123.805 60.0454 123.916 60.1024C124.024 60.1565 124.122 60.2249 124.209 60.3054C124.293 60.3851 124.362 60.4827 124.415 60.5974C124.469 60.7113 124.495 60.8473 124.495 61.0047C124.495 61.2134 124.453 61.412 124.371 61.6001C124.29 61.7902 124.171 61.9554 124.016 62.1007C123.862 62.2453 123.677 62.3606 123.459 62.4447C123.242 62.5301 122.999 62.5721 122.728 62.5721C122.443 62.5721 122.19 62.5216 121.965 62.419C121.743 62.3158 121.562 62.1854 121.424 62.0288L121.636 61.7012C121.692 61.6164 121.767 61.573 121.859 61.573C121.91 61.573 121.959 61.5922 122.008 61.6349C122.057 61.6727 122.116 61.7204 122.186 61.7674C122.257 61.8165 122.345 61.86 122.446 61.902C122.55 61.9447 122.682 61.964 122.843 61.964C122.98 61.964 123.106 61.944 123.216 61.902C123.326 61.86 123.419 61.8066 123.495 61.7375C123.572 61.6691 123.628 61.5894 123.67 61.4982C123.71 61.4071 123.728 61.3102 123.728 61.2062C123.728 61.1008 123.703 61.0097 123.648 60.9356C123.596 60.8601 123.527 60.7982 123.442 60.7455C123.358 60.6942 123.26 60.6479 123.148 60.6102C123.04 60.5703 122.927 60.5297 122.814 60.4855C122.7 60.4435 122.59 60.3987 122.478 60.346C122.369 60.2947 122.271 60.2306 122.185 60.1494C122.101 60.0711 122.032 59.9757 121.979 59.8624C121.925 59.7506 121.9 59.6132 121.9 59.4529C121.9 59.2628 121.937 59.0805 122.014 58.9017C122.092 58.7244 122.2 58.5677 122.342 58.4296C122.485 58.2921 122.659 58.1839 122.862 58.1006C123.067 58.0187 123.297 57.9781 123.557 57.9781C123.832 57.9781 124.073 58.0237 124.281 58.1127C124.487 58.2017 124.667 58.3242 124.816 58.4794L124.596 58.7906V58.7899Z" fill="white"/>
<path d="M126.944 56.6656C126.944 56.744 126.928 56.8187 126.892 56.8914C126.859 56.9647 126.815 57.0267 126.761 57.0801C126.708 57.1349 126.644 57.1777 126.573 57.2069C126.503 57.2389 126.432 57.2531 126.358 57.2531C126.284 57.2531 126.214 57.2389 126.146 57.2069C126.079 57.1777 126.019 57.1356 125.966 57.0801C125.916 57.0267 125.875 56.9647 125.844 56.8914C125.813 56.8187 125.797 56.7447 125.797 56.6656C125.797 56.5852 125.813 56.5118 125.844 56.4399C125.875 56.3672 125.916 56.306 125.97 56.2512C126.022 56.1956 126.084 56.1536 126.152 56.1208C126.22 56.0895 126.292 56.0731 126.365 56.0731C126.439 56.0731 126.511 56.0888 126.581 56.1201C126.651 56.1493 126.713 56.1921 126.766 56.2455C126.82 56.3003 126.863 56.363 126.894 56.4342C126.927 56.5068 126.944 56.5837 126.944 56.6649L126.944 56.6656ZM126.652 58.0408L126.111 62.5024H125.264L125.801 58.0408H126.652Z" fill="white"/>
<path d="M128.487 59.1104C128.723 58.7351 128.989 58.4538 129.284 58.263C129.576 58.0736 129.88 57.9774 130.191 57.9774C130.379 57.9774 130.547 58.0137 130.693 58.0899C130.837 58.164 130.956 58.2744 131.046 58.4161C131.137 58.5599 131.2 58.7344 131.234 58.9459C131.267 59.156 131.267 59.3946 131.231 59.6623L130.896 62.5017H130.036L130.377 59.6623C130.419 59.3262 130.397 59.0805 130.318 58.9224C130.237 58.7658 130.087 58.6881 129.87 58.6881C129.734 58.6881 129.596 58.7252 129.454 58.7985C129.314 58.8761 129.178 58.9801 129.047 59.1154C128.916 59.2522 128.794 59.4167 128.68 59.6096C128.569 59.8034 128.474 60.0177 128.397 60.2541L128.146 62.501H127.287L127.82 58.033H128.253C128.346 58.033 128.418 58.0572 128.467 58.1035C128.517 58.1505 128.543 58.2238 128.543 58.3235L128.487 59.1083V59.1104Z" fill="white"/>
<path d="M134.267 58.5935C134.092 58.5935 133.929 58.6284 133.782 58.7003C133.636 58.7729 133.504 58.8712 133.385 58.9994C133.267 59.1261 133.169 59.2764 133.085 59.4473C133.003 59.6189 132.939 59.8048 132.89 60.0049C133.324 59.9501 133.669 59.8881 133.928 59.8212C134.189 59.7535 134.389 59.6809 134.53 59.599C134.672 59.5207 134.764 59.4331 134.81 59.3434C134.856 59.2536 134.877 59.1561 134.877 59.0535C134.877 59.0037 134.867 58.9531 134.845 58.8983C134.823 58.8441 134.789 58.7936 134.74 58.7494C134.691 58.7038 134.627 58.6668 134.55 58.6362C134.472 58.6091 134.378 58.5942 134.266 58.5942L134.267 58.5935ZM135.544 61.6785C135.392 61.833 135.244 61.9662 135.101 62.0787C134.958 62.1891 134.808 62.2817 134.657 62.3543C134.504 62.4276 134.348 62.4796 134.185 62.5138C134.019 62.548 133.841 62.5658 133.646 62.5658C133.39 62.5658 133.16 62.5224 132.952 62.4355C132.745 62.3486 132.57 62.2275 132.426 62.0687C132.281 61.9106 132.172 61.7212 132.093 61.4947C132.016 61.2718 131.977 61.0219 131.977 60.7427C131.977 60.5127 131.999 60.2812 132.049 60.0562C132.097 59.8297 132.167 59.6154 132.262 59.4117C132.355 59.208 132.471 59.0179 132.606 58.8434C132.74 58.6675 132.894 58.5166 133.068 58.3891C133.243 58.2609 133.433 58.1626 133.642 58.0907C133.851 58.0195 134.075 57.9832 134.316 57.9832C134.544 57.9832 134.742 58.0152 134.911 58.0793C135.076 58.1448 135.216 58.2274 135.328 58.3271C135.436 58.429 135.518 58.5401 135.572 58.6625C135.625 58.785 135.65 58.9054 135.65 59.0229C135.65 59.2145 135.611 59.3932 135.532 59.5556C135.452 59.7172 135.306 59.8646 135.098 59.9935C134.887 60.1239 134.599 60.2385 134.232 60.3347C133.864 60.4322 133.392 60.5091 132.817 60.5675C132.812 60.5925 132.812 60.6195 132.812 60.6459V60.7249C132.812 61.1088 132.895 61.3972 133.061 61.5937C133.227 61.7903 133.478 61.8886 133.813 61.8886C133.95 61.8886 134.074 61.8743 134.184 61.8472C134.292 61.8181 134.388 61.7846 134.472 61.7426C134.554 61.7013 134.631 61.6585 134.695 61.6101C134.759 61.561 134.819 61.5168 134.872 61.4755C134.927 61.4349 134.978 61.4007 135.023 61.3701C135.072 61.3438 135.121 61.3288 135.171 61.3288C135.202 61.3288 135.23 61.3381 135.256 61.3537C135.28 61.3694 135.305 61.3908 135.327 61.4143L135.542 61.677L135.544 61.6785Z" fill="white"/>
<path d="M139.125 58.7899C139.098 58.8277 139.071 58.854 139.047 58.869C139.022 58.8875 138.991 58.8939 138.953 58.8939C138.907 58.8939 138.862 58.8775 138.813 58.8462C138.766 58.8141 138.706 58.78 138.638 58.7408C138.569 58.7023 138.485 58.6689 138.387 58.6347C138.292 58.6034 138.173 58.5877 138.036 58.5877C137.907 58.5877 137.79 58.6048 137.689 58.6404C137.584 58.6746 137.494 58.723 137.42 58.7821C137.346 58.8426 137.289 58.9138 137.25 58.9957C137.21 59.0762 137.19 59.1638 137.19 59.2543C137.19 59.3532 137.217 59.438 137.271 59.5049C137.322 59.5726 137.391 59.631 137.477 59.6837C137.562 59.7342 137.66 59.7812 137.771 59.8211C137.879 59.8617 137.992 59.9044 138.108 59.9514C138.222 59.9956 138.335 60.0454 138.444 60.1024C138.553 60.1565 138.651 60.2249 138.737 60.3054C138.823 60.3851 138.892 60.4827 138.945 60.5974C138.997 60.7113 139.023 60.8473 139.023 61.0047C139.023 61.2134 138.981 61.412 138.9 61.6001C138.818 61.7902 138.701 61.9554 138.546 62.1007C138.391 62.2453 138.204 62.3606 137.987 62.4447C137.771 62.5301 137.527 62.5721 137.256 62.5721C136.972 62.5721 136.717 62.5216 136.495 62.419C136.27 62.3158 136.09 62.1854 135.952 62.0288L136.164 61.7012C136.22 61.6164 136.295 61.573 136.388 61.573C136.44 61.573 136.487 61.5922 136.536 61.6349C136.584 61.6727 136.644 61.7204 136.714 61.7674C136.784 61.8165 136.872 61.86 136.973 61.902C137.077 61.9447 137.209 61.964 137.37 61.964C137.508 61.964 137.633 61.944 137.743 61.902C137.853 61.86 137.945 61.8066 138.023 61.7375C138.099 61.6691 138.156 61.5894 138.197 61.4982C138.237 61.4071 138.255 61.3102 138.255 61.2062C138.255 61.1008 138.23 61.0097 138.177 60.9356C138.124 60.8601 138.056 60.7982 137.97 60.7455C137.886 60.6942 137.788 60.6479 137.677 60.6102C137.568 60.5703 137.455 60.5297 137.341 60.4855C137.228 60.4435 137.119 60.3987 137.007 60.346C136.896 60.2947 136.798 60.2306 136.714 60.1494C136.629 60.0711 136.561 59.9757 136.506 59.8624C136.454 59.7506 136.428 59.6132 136.428 59.4529C136.428 59.2628 136.466 59.0805 136.544 58.9017C136.619 58.7244 136.727 58.5677 136.871 58.4296C137.014 58.2921 137.186 58.1839 137.39 58.1006C137.594 58.0187 137.826 57.9781 138.084 57.9781C138.36 57.9781 138.602 58.0237 138.809 58.1127C139.015 58.2017 139.195 58.3242 139.346 58.4794L139.125 58.7906L139.125 58.7899Z" fill="white"/>
<path d="M142.662 58.7899C142.633 58.8277 142.608 58.854 142.583 58.869C142.56 58.8875 142.528 58.8939 142.49 58.8939C142.445 58.8939 142.4 58.8775 142.351 58.8462C142.303 58.8141 142.244 58.78 142.175 58.7408C142.106 58.7023 142.022 58.6689 141.925 58.6347C141.829 58.6034 141.71 58.5877 141.573 58.5877C141.444 58.5877 141.327 58.6048 141.225 58.6404C141.122 58.6746 141.032 58.723 140.957 58.7821C140.883 58.8426 140.826 58.9138 140.787 58.9957C140.747 59.0762 140.727 59.1638 140.727 59.2543C140.727 59.3532 140.754 59.438 140.807 59.5049C140.859 59.5726 140.927 59.631 141.014 59.6837C141.098 59.7342 141.196 59.7812 141.307 59.8211C141.416 59.8617 141.529 59.9044 141.643 59.9514C141.758 59.9956 141.87 60.0454 141.981 60.1024C142.091 60.1565 142.188 60.2249 142.274 60.3054C142.359 60.3851 142.427 60.4827 142.482 60.5974C142.533 60.7113 142.56 60.8473 142.56 61.0047C142.56 61.2134 142.518 61.412 142.436 61.6001C142.354 61.7902 142.237 61.9554 142.081 62.1007C141.928 62.2453 141.742 62.3606 141.524 62.4447C141.307 62.5301 141.062 62.5721 140.792 62.5721C140.508 62.5721 140.253 62.5216 140.03 62.419C139.806 62.3158 139.627 62.1854 139.489 62.0288L139.7 61.7012C139.756 61.6164 139.831 61.573 139.924 61.573C139.975 61.573 140.024 61.5922 140.072 61.6349C140.121 61.6727 140.179 61.7204 140.25 61.7674C140.32 61.8165 140.408 61.86 140.51 61.902C140.613 61.9447 140.746 61.964 140.907 61.964C141.045 61.964 141.169 61.944 141.281 61.902C141.389 61.86 141.481 61.8066 141.559 61.7375C141.634 61.6691 141.692 61.5894 141.732 61.4982C141.772 61.4071 141.791 61.3102 141.791 61.2062C141.791 61.1008 141.766 61.0097 141.713 60.9356C141.659 60.8601 141.592 60.7982 141.506 60.7455C141.421 60.6942 141.323 60.6479 141.213 60.6102C141.104 60.5703 140.992 60.5297 140.878 60.4855C140.766 60.4435 140.656 60.3987 140.543 60.346C140.433 60.2947 140.335 60.2306 140.25 60.1494C140.165 60.0711 140.097 59.9757 140.043 59.8624C139.991 59.7506 139.965 59.6132 139.965 59.4529C139.965 59.2628 140.001 59.0805 140.08 58.9017C140.156 58.7244 140.264 58.5677 140.408 58.4296C140.549 58.2921 140.722 58.1839 140.927 58.1006C141.131 58.0187 141.363 57.9781 141.621 57.9781C141.896 57.9781 142.139 58.0237 142.345 58.1127C142.551 58.2017 142.731 58.3242 142.882 58.4794L142.662 58.7906V58.7899Z" fill="white"/>
<path d="M147.037 56.6656C147.037 56.744 147.02 56.8187 146.986 56.8914C146.953 56.9647 146.908 57.0267 146.854 57.0801C146.799 57.1349 146.738 57.1777 146.667 57.2069C146.594 57.2389 146.524 57.2531 146.452 57.2531C146.379 57.2531 146.307 57.2389 146.24 57.2069C146.171 57.1777 146.112 57.1356 146.06 57.0801C146.01 57.0267 145.968 56.9647 145.938 56.8914C145.907 56.8187 145.89 56.7447 145.89 56.6656C145.89 56.5852 145.906 56.5118 145.938 56.4399C145.968 56.3672 146.01 56.306 146.063 56.2512C146.116 56.1956 146.176 56.1536 146.245 56.1208C146.314 56.0895 146.386 56.0731 146.459 56.0731C146.533 56.0731 146.604 56.0888 146.675 56.1201C146.745 56.1493 146.806 56.1921 146.861 56.2455C146.913 56.3003 146.954 56.363 146.988 56.4342C147.019 56.5068 147.036 56.5837 147.036 56.6649L147.037 56.6656ZM146.746 58.0408L146.204 62.5024H145.358L145.895 58.0408H146.747H146.746Z" fill="white"/>
<path d="M150.289 58.7899C150.262 58.8277 150.237 58.854 150.211 58.869C150.188 58.8875 150.156 58.8939 150.117 58.8939C150.073 58.8939 150.027 58.8775 149.977 58.8462C149.93 58.8141 149.871 58.78 149.803 58.7408C149.733 58.7023 149.65 58.6689 149.552 58.6347C149.455 58.6034 149.338 58.5877 149.2 58.5877C149.071 58.5877 148.955 58.6048 148.852 58.6404C148.749 58.6746 148.66 58.723 148.586 58.7821C148.511 58.8426 148.453 58.9138 148.414 58.9957C148.374 59.0762 148.353 59.1638 148.353 59.2543C148.353 59.3532 148.381 59.438 148.434 59.5049C148.487 59.5726 148.555 59.631 148.642 59.6837C148.726 59.7342 148.824 59.7812 148.934 59.8211C149.044 59.8617 149.156 59.9044 149.271 59.9514C149.386 59.9956 149.498 60.0454 149.608 60.1024C149.716 60.1565 149.814 60.2249 149.902 60.3054C149.986 60.3851 150.055 60.4827 150.107 60.5974C150.16 60.7113 150.188 60.8473 150.188 61.0047C150.188 61.2134 150.146 61.412 150.065 61.6001C149.983 61.7902 149.864 61.9554 149.71 62.1007C149.555 62.2453 149.372 62.3606 149.152 62.4447C148.936 62.5301 148.692 62.5721 148.421 62.5721C148.137 62.5721 147.883 62.5216 147.659 62.419C147.435 62.3158 147.256 62.1854 147.118 62.0288L147.33 61.7012C147.385 61.6164 147.46 61.573 147.552 61.573C147.603 61.573 147.651 61.5922 147.701 61.6349C147.751 61.6727 147.809 61.7204 147.879 61.7674C147.95 61.8165 148.038 61.86 148.139 61.902C148.243 61.9447 148.375 61.964 148.537 61.964C148.674 61.964 148.8 61.944 148.908 61.902C149.019 61.86 149.112 61.8066 149.189 61.7375C149.265 61.6691 149.323 61.5894 149.363 61.4982C149.403 61.4071 149.422 61.3102 149.422 61.2062C149.422 61.1008 149.397 61.0097 149.342 60.9356C149.289 60.8601 149.22 60.7982 149.136 60.7455C149.051 60.6942 148.953 60.6479 148.842 60.6102C148.733 60.5703 148.621 60.5297 148.507 60.4855C148.394 60.4435 148.282 60.3987 148.172 60.346C148.063 60.2947 147.965 60.2306 147.879 60.1494C147.794 60.0711 147.725 59.9757 147.672 59.8624C147.618 59.7506 147.593 59.6132 147.593 59.4529C147.593 59.2628 147.631 59.0805 147.708 58.9017C147.784 58.7244 147.893 58.5677 148.035 58.4296C148.178 58.2921 148.352 58.1839 148.556 58.1006C148.76 58.0187 148.991 57.9781 149.249 57.9781C149.525 57.9781 149.766 58.0237 149.974 58.1127C150.18 58.2017 150.361 58.3242 150.509 58.4794L150.289 58.7906V58.7899Z" fill="white"/>
<path d="M155.489 61.7867C155.717 61.7867 155.929 61.7433 156.119 61.6593C156.309 61.571 156.478 61.4492 156.621 61.2932C156.765 61.1366 156.885 60.9521 156.975 60.737C157.068 60.5213 157.13 60.2827 157.164 60.0228L157.63 56.2007H158.538L158.066 60.0228C158.019 60.3888 157.923 60.7285 157.777 61.039C157.629 61.3509 157.439 61.6215 157.207 61.8494C156.975 62.078 156.706 62.2568 156.398 62.3842C156.093 62.5145 155.756 62.5779 155.393 62.5779C155.027 62.5779 154.707 62.5153 154.431 62.3842C154.157 62.2568 153.93 62.0787 153.754 61.8494C153.58 61.6215 153.457 61.3509 153.387 61.039C153.317 60.7285 153.304 60.3888 153.349 60.0228L153.815 56.2007H154.717L154.247 60.0228C154.215 60.2806 154.217 60.5177 154.258 60.7342C154.298 60.9528 154.371 61.1366 154.477 61.2911C154.583 61.4456 154.719 61.5674 154.891 61.6557C155.061 61.7426 155.261 61.7867 155.489 61.7867H155.489Z" fill="white"/>
<path d="M160.075 59.1104C160.311 58.7351 160.578 58.4538 160.873 58.263C161.167 58.0736 161.469 57.9774 161.779 57.9774C161.968 57.9774 162.134 58.0137 162.281 58.0899C162.426 58.164 162.544 58.2744 162.634 58.4161C162.727 58.5599 162.788 58.7344 162.823 58.9459C162.856 59.156 162.856 59.3946 162.819 59.6623L162.484 62.5017H161.625L161.965 59.6623C162.007 59.3262 161.986 59.0805 161.905 58.9224C161.823 58.7658 161.676 58.6881 161.46 58.6881C161.324 58.6881 161.186 58.7252 161.044 58.7985C160.903 58.8761 160.768 58.9801 160.637 59.1154C160.507 59.2522 160.384 59.4167 160.271 59.6096C160.157 59.8034 160.064 60.0177 159.985 60.2541L159.734 62.501H158.877L159.411 58.033H159.841C159.937 58.033 160.008 58.0572 160.058 58.1035C160.108 58.1505 160.133 58.2238 160.133 58.3235L160.076 59.1083L160.075 59.1104Z" fill="white"/>
<path d="M165.288 56.6656C165.288 56.744 165.271 56.8187 165.236 56.8914C165.204 56.9647 165.159 57.0267 165.106 57.0801C165.05 57.1349 164.989 57.1777 164.918 57.2069C164.847 57.2389 164.777 57.2531 164.703 57.2531C164.629 57.2531 164.559 57.2389 164.491 57.2069C164.423 57.1777 164.363 57.1356 164.312 57.0801C164.261 57.0267 164.22 56.9647 164.19 56.8914C164.157 56.8187 164.142 56.7447 164.142 56.6656C164.142 56.5852 164.157 56.5118 164.19 56.4399C164.22 56.3672 164.261 56.306 164.315 56.2512C164.368 56.1956 164.43 56.1536 164.497 56.1208C164.566 56.0895 164.638 56.0731 164.712 56.0731C164.785 56.0731 164.856 56.0888 164.927 56.1201C164.998 56.1493 165.058 56.1921 165.112 56.2455C165.164 56.3003 165.206 56.363 165.239 56.4342C165.271 56.5068 165.289 56.5837 165.289 56.6649L165.288 56.6656ZM164.998 58.0408L164.455 62.5024H163.609L164.147 58.0408H164.998H164.998Z" fill="white"/>
<path d="M168.674 58.6276C168.558 58.6105 168.445 58.6012 168.332 58.6012C168.071 58.6012 167.826 58.6611 167.6 58.7821C167.371 58.9046 167.173 59.0691 167.004 59.2721C166.835 59.4765 166.701 59.715 166.603 59.9856C166.504 60.2555 166.456 60.5397 166.456 60.8352C166.456 61.1771 166.511 61.4327 166.624 61.6001C166.734 61.7696 166.897 61.8522 167.108 61.8522C167.244 61.8522 167.376 61.8087 167.509 61.7211C167.64 61.635 167.767 61.5146 167.886 61.3594C168.005 61.2055 168.115 61.0247 168.216 60.8132C168.317 60.6024 168.407 60.3752 168.483 60.1274L168.674 58.6269V58.6276ZM168.307 61.4975C168.104 61.8244 167.874 62.085 167.616 62.2766C167.359 62.4682 167.079 62.565 166.778 62.565C166.601 62.565 166.439 62.5308 166.293 62.4611C166.15 62.3927 166.023 62.2894 165.921 62.1577C165.816 62.0245 165.735 61.8586 165.678 61.6635C165.62 61.4669 165.591 61.2419 165.591 60.9898C165.591 60.7248 165.627 60.4671 165.693 60.2142C165.761 59.9607 165.856 59.7236 165.977 59.5007C166.099 59.2785 166.248 59.0734 166.421 58.8861C166.593 58.6995 166.785 58.5386 166.996 58.4047C167.208 58.2694 167.436 58.164 167.682 58.0906C167.927 58.0151 168.184 57.9788 168.45 57.9788C168.645 57.9788 168.834 57.9931 169.021 58.0244C169.208 58.055 169.391 58.1077 169.571 58.1861L168.847 64H168.301C168.242 64 168.195 63.9893 168.158 63.9687C168.121 63.9494 168.094 63.9217 168.072 63.8868C168.051 63.854 168.038 63.8177 168.032 63.7764C168.027 63.7365 168.027 63.6924 168.032 63.6489L168.306 61.4982L168.307 61.4975Z" fill="white"/>
<path d="M174.265 58.0436L173.723 62.503H173.295C173.087 62.503 172.983 62.3998 172.983 62.194L173.036 61.4662C172.803 61.8301 172.543 62.1028 172.254 62.2887C171.963 62.4731 171.666 62.565 171.362 62.565C171.174 62.565 171.007 62.5265 170.861 62.4518C170.716 62.3784 170.596 62.2673 170.505 62.1249C170.415 61.9818 170.352 61.8059 170.32 61.5965C170.285 61.3878 170.284 61.1485 170.317 60.8779L170.655 58.0429H171.51L171.175 60.8779C171.133 61.2112 171.153 61.4576 171.233 61.6157C171.312 61.7738 171.461 61.8514 171.682 61.8514C171.814 61.8514 171.95 61.8165 172.088 61.7446C172.226 61.6734 172.359 61.5716 172.489 61.4398C172.618 61.3095 172.737 61.15 172.849 60.9627C172.957 60.7747 173.052 60.5667 173.13 60.3374L173.406 58.0422H174.264L174.265 58.0436Z" fill="white"/>
<path d="M177.14 58.5935C176.965 58.5935 176.802 58.6284 176.657 58.7003C176.51 58.7729 176.379 58.8712 176.259 58.9994C176.143 59.1261 176.042 59.2764 175.96 59.4473C175.878 59.6189 175.814 59.8048 175.766 60.0049C176.198 59.9501 176.544 59.8881 176.803 59.8212C177.064 59.7535 177.264 59.6809 177.404 59.599C177.546 59.5207 177.639 59.4331 177.686 59.3434C177.731 59.2536 177.753 59.1561 177.753 59.0535C177.753 59.0037 177.742 58.9531 177.72 58.8983C177.698 58.8441 177.663 58.7936 177.615 58.7494C177.565 58.7038 177.502 58.6668 177.425 58.6362C177.347 58.6091 177.252 58.5942 177.14 58.5942V58.5935ZM178.418 61.6785C178.265 61.833 178.117 61.9662 177.974 62.0787C177.831 62.1891 177.681 62.2817 177.53 62.3543C177.377 62.4276 177.221 62.4796 177.058 62.5138C176.893 62.548 176.714 62.5658 176.519 62.5658C176.265 62.5658 176.033 62.5224 175.825 62.4355C175.619 62.3486 175.443 62.2275 175.299 62.0687C175.154 61.9106 175.045 61.7212 174.966 61.4947C174.889 61.2718 174.851 61.0219 174.851 60.7427C174.851 60.5127 174.873 60.2812 174.922 60.0562C174.971 59.8297 175.04 59.6154 175.136 59.4117C175.229 59.208 175.344 59.0179 175.48 58.8434C175.614 58.6675 175.768 58.5166 175.94 58.3891C176.115 58.2609 176.306 58.1626 176.514 58.0907C176.723 58.0195 176.948 57.9832 177.189 57.9832C177.417 57.9832 177.615 58.0152 177.784 58.0793C177.949 58.1448 178.089 58.2274 178.2 58.3271C178.309 58.429 178.391 58.5401 178.445 58.6625C178.497 58.785 178.523 58.9054 178.523 59.0229C178.523 59.2145 178.484 59.3932 178.404 59.5556C178.325 59.7172 178.178 59.8646 177.97 59.9935C177.761 60.1239 177.472 60.2385 177.106 60.3347C176.738 60.4322 176.266 60.5091 175.691 60.5675C175.687 60.5925 175.685 60.6195 175.685 60.6459V60.7249C175.685 61.1088 175.768 61.3972 175.934 61.5937C176.101 61.7903 176.351 61.8886 176.686 61.8886C176.823 61.8886 176.948 61.8743 177.057 61.8472C177.165 61.8181 177.262 61.7846 177.345 61.7426C177.427 61.7013 177.504 61.6585 177.568 61.6101C177.632 61.561 177.692 61.5168 177.746 61.4755C177.801 61.4349 177.851 61.4007 177.897 61.3701C177.945 61.3438 177.994 61.3288 178.044 61.3288C178.075 61.3288 178.104 61.3381 178.129 61.3537C178.153 61.3694 178.178 61.3908 178.202 61.4143L178.417 61.677L178.418 61.6785Z" fill="white"/>
<path d="M100.79 2.00073H105.735L116.935 16.3419V2.00073H121.879V24.1662H116.935L105.735 9.68049V24.1662H100.79V2.00073Z" fill="white"/>
<path d="M82.5704 41.5789L73.7593 28.338H79.8298L84.8871 36.2556L90.3777 28.338H96.1579L87.4883 41.5789V51.5105H82.5733L82.5704 41.5789Z" fill="white"/>
<path d="M119.423 33.2319H113.209V28.3387H130.694V33.2319H124.48V51.5105H119.568V33.2319H119.423Z" fill="white"/>
<path d="M133.295 28.3387H148.902V33.2326H138.208V37.4058H146.589V42.2996H138.208V46.7598H148.902V51.6536H133.295V28.3387Z" fill="white"/>
<path d="M157.426 28.3387L165.374 44.0266L173.323 28.3387H178.525V51.5105H173.323V39.9965L167.109 51.5105H163.206L157.282 39.9965V51.5105H152.08V28.3387H157.426Z" fill="white"/>
<path d="M95.9177 15.2815C95.9177 16.5641 95.9177 24.1655 86.7841 24.1655C77.6197 24.1655 77.6197 16.5641 77.6197 15.2815V2.00146H82.401V15.0992C82.401 15.7708 82.7807 19.7702 86.7848 19.7702C90.7445 19.7702 91.1371 15.7708 91.1371 15.0992V2.00146H95.9191V15.2815H95.9177Z" fill="white"/>
<path d="M62.3348 11.1731H65.227C65.6675 11.1731 66.1329 11.1568 66.6256 11.1261C67.1182 11.0962 67.5623 11.0008 67.9619 10.8441C68.3581 10.6875 68.6884 10.4432 68.9515 10.1092C69.2125 9.77521 69.3448 9.30519 69.3448 8.70058C69.3448 8.13657 69.2297 7.68792 68.9994 7.35534C68.7699 7.02135 68.4746 6.76569 68.1207 6.58623C67.7632 6.41033 67.3535 6.28998 66.8937 6.22731C66.4325 6.16464 65.9828 6.13402 65.543 6.13402H62.3369V11.1731H62.3348ZM57.4319 2.00073H66.0436C67.1754 2.00073 68.2494 2.11254 69.2661 2.32903C70.2807 2.54837 71.1717 2.9137 71.936 3.42573C72.7018 3.93705 73.3088 4.6257 73.76 5.49166C74.2098 6.35763 74.435 7.43866 74.435 8.73192C74.435 10.2979 74.0274 11.6275 73.2102 12.7228C72.3936 13.8195 71.1981 14.5124 69.6272 14.8044L75.2844 24.1641H69.4063L64.7551 15.3043H62.3348V24.1641H57.4319V2.00073Z" fill="white"/>
<path d="M108.043 34.394C107.649 33.8991 105.849 32.719 103.445 33.0637C103.066 33.1186 102.106 33.4554 101.58 34.1469C100.896 35.0435 101.302 36.1765 102.015 36.7156C102.5 37.0852 103.137 37.3658 103.894 37.615C104.651 37.8614 105.463 38.1093 106.334 38.3571C107.205 38.6042 108.018 38.956 108.774 39.4089C109.53 39.864 110.156 40.4722 110.654 41.2356C111.15 41.9997 111.399 43.0216 111.399 44.3006C111.399 45.517 111.172 46.5809 110.716 47.4882C110.26 48.3955 108.165 51.5111 102.916 51.5111C101.486 51.5111 98.4732 50.9692 95.5201 48.7558L98.9687 44.9807C100.195 46.1131 101.551 47.0538 103.196 47.0538C105.397 47.0538 106.067 46.0774 106.257 45.7848C106.53 45.3667 106.94 44.1518 105.791 43.2011C105.302 42.7959 104.645 42.4939 103.879 42.2255C103.113 41.9584 102.284 41.6885 101.393 41.4207C100.502 41.153 99.6722 40.7912 98.9079 40.3376C98.14 39.8832 97.5043 39.285 96.9967 38.5422C96.489 37.7988 96.2352 36.8189 96.2352 35.6011C96.2352 34.4246 96.454 33.387 96.9344 32.5061C98.0999 30.3661 100.471 29.231 101.486 28.9319C102.503 28.6335 103.548 28.4832 104.625 28.4832C105.869 28.4832 107.07 28.6577 108.231 29.0088C109.391 29.3592 110.437 29.9495 111.369 30.772L108.044 34.394H108.043Z" fill="white"/>
<path d="M69.9546 34.394C69.562 33.8991 67.7602 32.719 65.3556 33.0637C64.9766 33.1186 64.0163 33.4554 63.4901 34.1469C62.808 35.0435 63.2134 36.1765 63.9255 36.7156C64.411 37.0852 65.0495 37.3658 65.806 37.615C66.5618 37.8614 67.3741 38.1093 68.2442 38.3571C69.1159 38.6042 69.9281 38.956 70.6832 39.4089C71.4411 39.864 72.0667 40.4722 72.5644 41.2356C73.0613 41.9997 73.3101 43.0216 73.3101 44.3006C73.3101 45.517 73.0821 46.5809 72.628 47.4882C72.1711 48.3955 70.0761 51.5111 64.8257 51.5111C63.3979 51.5111 60.3841 50.9692 57.431 48.7558L60.8796 44.9807C62.1044 46.1131 63.4622 47.0538 65.1053 47.0538C67.3061 47.0538 67.9761 46.0774 68.167 45.7848C68.4409 45.3667 68.8513 44.1518 67.7023 43.2011C67.2132 42.7959 66.5554 42.4939 65.7896 42.2255C65.0238 41.9584 64.1944 41.6885 63.3049 41.4207C62.4133 41.153 61.5846 40.7912 60.8181 40.3376C60.0509 39.8832 59.4145 39.285 58.9061 38.5422C58.3992 37.7988 58.1453 36.8189 58.1453 35.6011C58.1453 34.4246 58.3641 33.387 58.8453 32.5061C60.0115 30.3661 62.3811 29.231 63.3979 28.9319C64.4117 28.6335 65.4592 28.4832 66.5361 28.4832C67.7788 28.4832 68.98 28.6577 70.1405 29.0088C71.3009 29.3592 72.347 29.9495 73.2794 30.772L69.9538 34.394H69.9546Z" fill="white"/>
<path d="M49.473 34.7722L16.5693 2.0022H2.00586L49.473 49.1397V34.7722Z" fill="white"/>
<path d="M49.4731 18.3281L33.082 2.00146H17.8257L49.4731 33.5224V18.3281Z" fill="white"/>
<path d="M34.3368 2.00146L49.473 17.0783V2.00146H34.3368Z" fill="white"/>
</svg>
